# xmcd
#
# Track frame offsets: 
#        150
#        36102
#        62037
#        85617
#        116463
#        141101
#        166740
#        185544
#        240241
#
# Disc length: 3692 seconds
#
# Revision: 3
# Processed by: cddbd v1.5.2PL0 Copyright (c) Steve Scherf et al.
# Submitted via: ExactAudioCopyFreeDBPlugin 1.0
#
DISCID=670e6a09
DTITLE=Eric Dolphy Quintet - Outward Bound
DYEAR=1960
DGENRE=Jazz
TTITLE0=G.W.
TTITLE1=On Green Dolphin Street
TTITLE2=Les
TTITLE3=245
TTITLE4=Glad to Be Unhappy
TTITLE5=Miss Toni
TTITLE6=April Fool
TTITLE7=G.W. [alt. take 1]
TTITLE8=245 [alt. take 1]
EXTD=Freddie Hubbard (1938/2008): trumpet\nEric Dolphy (1928/1964): al
EXTD=to sax, bass clarinet, flute\nJaki Byard (1922/1999): piano\nGeor
EXTD=ge Tucker (1927/1965): bass\nRoy Haynes (b.1925): drums\nRecorded
EXTD=by Rudy Van Gelder (b.1924) at Van Gelder Studio, Englewood Clif
EXTD=fs US-NJ, 1960-04-01.\nSupervised by Esmond Edwards.\nTracks 1-6 
EXTD=originally issued as New Jazz NJLP 8236 (1960).\nReissue produced
EXTD=by Nick Phillips and Bob Porter.\nRemastered by Rudy Van Gelder,
EXTD=2006.\nCD: Concord/Prestige/New Jazz PRCD-30083-2 (2006-09-12), 
EXTD=UPC 888072300835.
EXTT0=(Eric Dolphy)
EXTT1=(Bronislau Kaper//Ned Washington)
EXTT2=(Eric Dolphy)
EXTT3=(Eric Dolphy)
EXTT4=(Richard Rodgers//Lorenz Hart)
EXTT5=(Charles Greenlee)
EXTT6=(Eric Dolphy)
EXTT7=(Eric Dolphy)
EXTT8=(Eric Dolphy)
PLAYORDER=
